<?xml version="1.0" encoding="UTF-8" standalone="no"?>
<!DOCTYPE svg PUBLIC "-//W3C//DTD SVG 1.1//EN" "http://www.w3.org/Graphics/SVG/1.1/DTD/svg11.dtd">
<svg xmlns="http://www.w3.org/2000/svg" version="1.1" xmlns:xlink="http://www.w3.org/1999/xlink" viewBox="0 0 512 288">
<!-- Copyright 2016 Isaac Gouy -->
<!-- http://benchmarksgame.alioth.debian.org/license.html -->
<g stroke="#ccc" >
<line x1="51" y1="144" x2="511" y2="144" />
<line x1="51" y1="24" x2="511" y2="24" />
</g>
<g stroke="#999" stroke-dasharray="25,5">
<line x1="58" y1="53.47" x2="511" y2="53.47" />
<line x1="58" y1="234.53" x2="511" y2="234.53" />
</g>
<g style="text-anchor: end; font-family: Ubuntu,Verdana,sans-serif; font-size: 0.9em;" >
<text x="51" y="262" >-0.15</text>
<text x="51" y="222" >-0.10</text>
<text x="51" y="182" >-0.05</text>
<text x="51" y="142" >0</text>
<text x="51" y="102" >0.05</text>
<text x="51" y="62" >0.10</text>
<text x="51" y="22" >0.15</text>
</g>
<g stroke="#333" stroke-width="2" >
<line x1="67.44" y1="144" x2="67.44" y2="104.87" />
<line x1="86.31" y1="144" x2="86.31" y2="123.10" />
<line x1="105.19" y1="144" x2="105.19" y2="159.14" />
<line x1="124.06" y1="144" x2="124.06" y2="201.41" />
<line x1="142.94" y1="144" x2="142.94" y2="159.16" />
<line x1="161.81" y1="144" x2="161.81" y2="159.11" />
<line x1="180.69" y1="144" x2="180.69" y2="245.86" />
<line x1="199.56" y1="144" x2="199.56" y2="164.62" />
<line x1="218.44" y1="144" x2="218.44" y2="158.51" />
<line x1="237.31" y1="144" x2="237.31" y2="179.91" />
<line x1="256.19" y1="144" x2="256.19" y2="179.99" />
<line x1="275.06" y1="144" x2="275.06" y2="158.98" />
<line x1="293.94" y1="144" x2="293.94" y2="66.18" />
<line x1="312.81" y1="144" x2="312.81" y2="80.11" />
<line x1="331.69" y1="144" x2="331.69" y2="152.75" />
<line x1="350.56" y1="144" x2="350.56" y2="124.71" />
<line x1="369.44" y1="144" x2="369.44" y2="129.71" />
<line x1="388.31" y1="144" x2="388.31" y2="100.93" />
<line x1="407.19" y1="144" x2="407.19" y2="137.12" />
<line x1="426.06" y1="144" x2="426.06" y2="113.24" />
<line x1="444.94" y1="144" x2="444.94" y2="166.04" />
<line x1="463.81" y1="144" x2="463.81" y2="179.12" />
<line x1="482.69" y1="144" x2="482.69" y2="96.89" />
<line x1="501.56" y1="144" x2="501.56" y2="134.77" />
</g>
<g style="text-anchor: end; font-family: Ubuntu,Verdana,sans-serif; font-size: 0.9em;" >
<text x="512" y="282" >Lag</text>
<text x="58" y="282" style="text-anchor: start;" >benchmarks game</text>
</g>
<text x="285" y="18" style="text-anchor: middle; font-family: Ubuntu,Verdana,sans-serif; font-size: 1.2em;" >Auto Correlation Function : Java n-body #3</text>
<g stroke="#333" >
<line x1="58" y1="24" x2="58" y2="264" />
<line x1="511" y1="24" x2="511" y2="264" />
<line x1="58" y1="264" x2="511" y2="264" />
</g>
</svg>

