<?xml version="1.0" encoding="UTF-8" standalone="no"?>
<!DOCTYPE svg PUBLIC "-//W3C//DTD SVG 1.1//EN" "http://www.w3.org/Graphics/SVG/1.1/DTD/svg11.dtd">
<svg xmlns="http://www.w3.org/2000/svg" version="1.1" xmlns:xlink="http://www.w3.org/1999/xlink" viewBox="0 0 512 288">
<!-- Copyright 2016 Isaac Gouy -->
<!-- http://benchmarksgame.alioth.debian.org/license.html -->
<g stroke="#ccc" >
<line x1="58" y1="264" x2="298" y2="22.0" />
<line x1="58" y1="22.0" x2="298" y2="22.0" />
</g>
<g style="text-anchor: end; font-family: Ubuntu,Verdana,sans-serif; font-size: 0.9em;" >
<text x="51" y="262" >22.47</text>
<text x="51" y="227.715" >.48</text>
<text x="51" y="193.43" >.49</text>
<text x="51" y="159.145" >.50</text>
<text x="51" y="124.86" >.51</text>
<text x="51" y="90.575" >.52</text>
<text x="51" y="56.29" >.53</text>
<text x="51" y="22.005" >22.54</text>
</g>
<g stroke="#ccc">
<circle cx="126.57" cy="186.57" r="2.0"></circle>
<circle cx="133.43" cy="210.57" r="2.0"></circle>
<circle cx="109.43" cy="196.86" r="2.0"></circle>
<circle cx="123.14" cy="207.14" r="2.0"></circle>
<circle cx="112.86" cy="179.71" r="2.0"></circle>
<circle cx="140.29" cy="200.29" r="2.0"></circle>
<circle cx="119.71" cy="207.14" r="2.0"></circle>
<circle cx="112.86" cy="200.29" r="2.0"></circle>
<circle cx="119.71" cy="183.14" r="2.0"></circle>
<circle cx="136.86" cy="196.86" r="2.0"></circle>
<circle cx="123.14" cy="207.14" r="2.0"></circle>
<circle cx="112.86" cy="94.00" r="2.0"></circle>
<circle cx="226.00" cy="190.00" r="2.0"></circle>
<circle cx="130.00" cy="220.86" r="2.0"></circle>
<circle cx="99.14" cy="210.57" r="2.0"></circle>
<circle cx="109.43" cy="186.57" r="2.0"></circle>
<circle cx="133.43" cy="203.71" r="2.0"></circle>
<circle cx="116.29" cy="207.14" r="2.0"></circle>
<circle cx="112.86" cy="179.71" r="2.0"></circle>
<circle cx="140.29" cy="179.71" r="2.0"></circle>
<circle cx="140.29" cy="196.86" r="2.0"></circle>
<circle cx="123.14" cy="186.57" r="2.0"></circle>
<circle cx="133.43" cy="193.43" r="2.0"></circle>
<circle cx="126.57" cy="186.57" r="2.0"></circle>
<circle cx="133.43" cy="200.29" r="2.0"></circle>
<circle cx="119.71" cy="210.57" r="2.0"></circle>
<circle cx="109.43" cy="190.00" r="2.0"></circle>
<circle cx="130.00" cy="155.71" r="2.0"></circle>
<circle cx="164.29" cy="207.14" r="2.0"></circle>
<circle cx="112.86" cy="207.14" r="2.0"></circle>
<circle cx="112.86" cy="193.43" r="2.0"></circle>
<circle cx="126.57" cy="190.00" r="2.0"></circle>
<circle cx="130.00" cy="183.14" r="2.0"></circle>
<circle cx="136.86" cy="217.43" r="2.0"></circle>
<circle cx="102.57" cy="193.43" r="2.0"></circle>
<circle cx="126.57" cy="200.29" r="2.0"></circle>
<circle cx="119.71" cy="200.29" r="2.0"></circle>
<circle cx="119.71" cy="100.86" r="2.0"></circle>
<circle cx="219.14" cy="200.29" r="2.0"></circle>
<circle cx="119.71" cy="200.29" r="2.0"></circle>
<circle cx="119.71" cy="207.14" r="2.0"></circle>
<circle cx="112.86" cy="183.14" r="2.0"></circle>
<circle cx="136.86" cy="220.86" r="2.0"></circle>
<circle cx="99.14" cy="179.71" r="2.0"></circle>
<circle cx="140.29" cy="179.71" r="2.0"></circle>
<circle cx="140.29" cy="46.00" r="2.0"></circle>
<circle cx="274.00" cy="176.29" r="2.0"></circle>
<circle cx="143.71" cy="196.86" r="2.0"></circle>
<circle cx="123.14" cy="196.86" r="2.0"></circle>
<circle cx="123.14" cy="210.57" r="2.0"></circle>
<circle cx="109.43" cy="162.57" r="2.0"></circle>
<circle cx="157.43" cy="217.43" r="2.0"></circle>
<circle cx="102.57" cy="220.86" r="2.0"></circle>
<circle cx="99.14" cy="186.57" r="2.0"></circle>
<circle cx="133.43" cy="196.86" r="2.0"></circle>
<circle cx="123.14" cy="183.14" r="2.0"></circle>
<circle cx="136.86" cy="203.71" r="2.0"></circle>
<circle cx="116.29" cy="203.71" r="2.0"></circle>
<circle cx="116.29" cy="200.29" r="2.0"></circle>
<circle cx="119.71" cy="200.29" r="2.0"></circle>
<circle cx="119.71" cy="186.57" r="2.0"></circle>
<circle cx="133.43" cy="203.71" r="2.0"></circle>
<circle cx="116.29" cy="155.71" r="2.0"></circle>
<circle cx="164.29" cy="210.57" r="2.0"></circle>
<circle cx="109.43" cy="207.14" r="2.0"></circle>
<circle cx="112.86" cy="176.29" r="2.0"></circle>
<circle cx="143.71" cy="190.00" r="2.0"></circle>
<circle cx="130.00" cy="200.29" r="2.0"></circle>
<circle cx="119.71" cy="193.43" r="2.0"></circle>
<circle cx="126.57" cy="200.29" r="2.0"></circle>
<circle cx="119.71" cy="176.29" r="2.0"></circle>
<circle cx="143.71" cy="183.14" r="2.0"></circle>
<circle cx="136.86" cy="207.14" r="2.0"></circle>
<circle cx="112.86" cy="190.00" r="2.0"></circle>
<circle cx="130.00" cy="186.57" r="2.0"></circle>
<circle cx="133.43" cy="193.43" r="2.0"></circle>
<circle cx="126.57" cy="176.29" r="2.0"></circle>
<circle cx="143.71" cy="196.86" r="2.0"></circle>
<circle cx="123.14" cy="169.43" r="2.0"></circle>
<circle cx="150.57" cy="214.00" r="2.0"></circle>
<circle cx="106.00" cy="207.14" r="2.0"></circle>
<circle cx="112.86" cy="203.71" r="2.0"></circle>
<circle cx="116.29" cy="196.86" r="2.0"></circle>
<circle cx="123.14" cy="203.71" r="2.0"></circle>
<circle cx="116.29" cy="179.71" r="2.0"></circle>
<circle cx="140.29" cy="200.29" r="2.0"></circle>
<circle cx="119.71" cy="186.57" r="2.0"></circle>
<circle cx="133.43" cy="183.14" r="2.0"></circle>
<circle cx="136.86" cy="207.14" r="2.0"></circle>
<circle cx="112.86" cy="200.29" r="2.0"></circle>
<circle cx="119.71" cy="176.29" r="2.0"></circle>
<circle cx="143.71" cy="210.57" r="2.0"></circle>
<circle cx="109.43" cy="214.00" r="2.0"></circle>
<circle cx="106.00" cy="207.14" r="2.0"></circle>
<circle cx="112.86" cy="200.29" r="2.0"></circle>
<circle cx="119.71" cy="200.29" r="2.0"></circle>
<circle cx="119.71" cy="220.86" r="2.0"></circle>
<circle cx="99.14" cy="203.71" r="2.0"></circle>
<circle cx="116.29" cy="176.29" r="2.0"></circle>
<circle cx="143.71" cy="186.57" r="2.0"></circle>
<circle cx="133.43" cy="193.43" r="2.0"></circle>
<circle cx="126.57" cy="176.29" r="2.0"></circle>
<circle cx="143.71" cy="200.29" r="2.0"></circle>
<circle cx="119.71" cy="210.57" r="2.0"></circle>
<circle cx="109.43" cy="190.00" r="2.0"></circle>
<circle cx="130.00" cy="214.00" r="2.0"></circle>
<circle cx="106.00" cy="190.00" r="2.0"></circle>
<circle cx="130.00" cy="203.71" r="2.0"></circle>
<circle cx="116.29" cy="210.57" r="2.0"></circle>
<circle cx="109.43" cy="224.29" r="2.0"></circle>
<circle cx="95.71" cy="200.29" r="2.0"></circle>
<circle cx="119.71" cy="196.86" r="2.0"></circle>
<circle cx="123.14" cy="196.86" r="2.0"></circle>
<circle cx="123.14" cy="207.14" r="2.0"></circle>
<circle cx="112.86" cy="186.57" r="2.0"></circle>
<circle cx="133.43" cy="196.86" r="2.0"></circle>
<circle cx="123.14" cy="207.14" r="2.0"></circle>
<circle cx="112.86" cy="200.29" r="2.0"></circle>
<circle cx="119.71" cy="183.14" r="2.0"></circle>
<circle cx="136.86" cy="196.86" r="2.0"></circle>
<circle cx="123.14" cy="183.14" r="2.0"></circle>
<circle cx="136.86" cy="203.71" r="2.0"></circle>
<circle cx="116.29" cy="220.86" r="2.0"></circle>
<circle cx="99.14" cy="186.57" r="2.0"></circle>
<circle cx="133.43" cy="193.43" r="2.0"></circle>
<circle cx="126.57" cy="217.43" r="2.0"></circle>
<circle cx="102.57" cy="210.57" r="2.0"></circle>
<circle cx="109.43" cy="148.86" r="2.0"></circle>
<circle cx="171.14" cy="169.43" r="2.0"></circle>
<circle cx="150.57" cy="217.43" r="2.0"></circle>
<circle cx="102.57" cy="193.43" r="2.0"></circle>
<circle cx="126.57" cy="207.14" r="2.0"></circle>
<circle cx="112.86" cy="179.71" r="2.0"></circle>
<circle cx="140.29" cy="220.86" r="2.0"></circle>
<circle cx="99.14" cy="200.29" r="2.0"></circle>
<circle cx="119.71" cy="214.00" r="2.0"></circle>
<circle cx="106.00" cy="200.29" r="2.0"></circle>
<circle cx="119.71" cy="207.14" r="2.0"></circle>
<circle cx="112.86" cy="207.14" r="2.0"></circle>
<circle cx="112.86" cy="203.71" r="2.0"></circle>
<circle cx="116.29" cy="214.00" r="2.0"></circle>
<circle cx="106.00" cy="220.86" r="2.0"></circle>
<circle cx="99.14" cy="220.86" r="2.0"></circle>
<circle cx="99.14" cy="196.86" r="2.0"></circle>
<circle cx="123.14" cy="210.57" r="2.0"></circle>
<circle cx="109.43" cy="193.43" r="2.0"></circle>
<circle cx="126.57" cy="203.71" r="2.0"></circle>
<circle cx="116.29" cy="214.00" r="2.0"></circle>
<circle cx="106.00" cy="224.29" r="2.0"></circle>
<circle cx="95.71" cy="190.00" r="2.0"></circle>
<circle cx="130.00" cy="169.43" r="2.0"></circle>
<circle cx="150.57" cy="200.29" r="2.0"></circle>
<circle cx="119.71" cy="214.00" r="2.0"></circle>
<circle cx="106.00" cy="200.29" r="2.0"></circle>
<circle cx="119.71" cy="214.00" r="2.0"></circle>
<circle cx="106.00" cy="210.57" r="2.0"></circle>
<circle cx="109.43" cy="196.86" r="2.0"></circle>
<circle cx="123.14" cy="203.71" r="2.0"></circle>
<circle cx="116.29" cy="186.57" r="2.0"></circle>
<circle cx="133.43" cy="172.86" r="2.0"></circle>
<circle cx="147.14" cy="193.43" r="2.0"></circle>
<circle cx="126.57" cy="203.71" r="2.0"></circle>
<circle cx="116.29" cy="200.29" r="2.0"></circle>
<circle cx="119.71" cy="207.14" r="2.0"></circle>
<circle cx="112.86" cy="179.71" r="2.0"></circle>
<circle cx="140.29" cy="220.86" r="2.0"></circle>
<circle cx="99.14" cy="190.00" r="2.0"></circle>
<circle cx="130.00" cy="203.71" r="2.0"></circle>
<circle cx="116.29" cy="196.86" r="2.0"></circle>
<circle cx="123.14" cy="210.57" r="2.0"></circle>
<circle cx="109.43" cy="207.14" r="2.0"></circle>
<circle cx="112.86" cy="186.57" r="2.0"></circle>
<circle cx="133.43" cy="220.86" r="2.0"></circle>
<circle cx="99.14" cy="172.86" r="2.0"></circle>
<circle cx="147.14" cy="169.43" r="2.0"></circle>
<circle cx="150.57" cy="203.71" r="2.0"></circle>
<circle cx="116.29" cy="207.14" r="2.0"></circle>
<circle cx="112.86" cy="200.29" r="2.0"></circle>
<circle cx="119.71" cy="196.86" r="2.0"></circle>
<circle cx="123.14" cy="203.71" r="2.0"></circle>
<circle cx="116.29" cy="203.71" r="2.0"></circle>
<circle cx="116.29" cy="193.43" r="2.0"></circle>
<circle cx="126.57" cy="210.57" r="2.0"></circle>
<circle cx="109.43" cy="220.86" r="2.0"></circle>
<circle cx="99.14" cy="179.71" r="2.0"></circle>
<circle cx="140.29" cy="169.43" r="2.0"></circle>
<circle cx="150.57" cy="200.29" r="2.0"></circle>
<circle cx="119.71" cy="193.43" r="2.0"></circle>
<circle cx="126.57" cy="193.43" r="2.0"></circle>
<circle cx="126.57" cy="200.29" r="2.0"></circle>
<circle cx="119.71" cy="196.86" r="2.0"></circle>
<circle cx="123.14" cy="203.71" r="2.0"></circle>
<circle cx="116.29" cy="196.86" r="2.0"></circle>
<circle cx="123.14" cy="193.43" r="2.0"></circle>
<circle cx="126.57" cy="224.29" r="2.0"></circle>
<circle cx="95.71" cy="220.86" r="2.0"></circle>
<circle cx="99.14" cy="220.86" r="2.0"></circle>
<circle cx="99.14" cy="203.71" r="2.0"></circle>
<circle cx="116.29" cy="196.86" r="2.0"></circle>
<circle cx="123.14" cy="210.57" r="2.0"></circle>
<circle cx="109.43" cy="193.43" r="2.0"></circle>
<circle cx="126.57" cy="190.00" r="2.0"></circle>
<circle cx="130.00" cy="203.71" r="2.0"></circle>
<circle cx="116.29" cy="162.57" r="2.0"></circle>
<circle cx="157.43" cy="207.14" r="2.0"></circle>
<circle cx="112.86" cy="200.29" r="2.0"></circle>
<circle cx="119.71" cy="196.86" r="2.0"></circle>
<circle cx="123.14" cy="203.71" r="2.0"></circle>
<circle cx="116.29" cy="207.14" r="2.0"></circle>
<circle cx="112.86" cy="207.14" r="2.0"></circle>
<circle cx="112.86" cy="200.29" r="2.0"></circle>
<circle cx="119.71" cy="196.86" r="2.0"></circle>
<circle cx="123.14" cy="193.43" r="2.0"></circle>
<circle cx="126.57" cy="200.29" r="2.0"></circle>
<circle cx="119.71" cy="196.86" r="2.0"></circle>
<circle cx="123.14" cy="196.86" r="2.0"></circle>
<circle cx="123.14" cy="217.43" r="2.0"></circle>
<circle cx="102.57" cy="210.57" r="2.0"></circle>
<circle cx="109.43" cy="166.00" r="2.0"></circle>
<circle cx="154.00" cy="210.57" r="2.0"></circle>
<circle cx="109.43" cy="210.57" r="2.0"></circle>
<circle cx="109.43" cy="200.29" r="2.0"></circle>
<circle cx="119.71" cy="224.29" r="2.0"></circle>
<circle cx="95.71" cy="190.00" r="2.0"></circle>
<circle cx="130.00" cy="193.43" r="2.0"></circle>
<circle cx="126.57" cy="193.43" r="2.0"></circle>
<circle cx="126.57" cy="200.29" r="2.0"></circle>
<circle cx="119.71" cy="172.86" r="2.0"></circle>
<circle cx="147.14" cy="214.00" r="2.0"></circle>
<circle cx="106.00" cy="200.29" r="2.0"></circle>
<circle cx="119.71" cy="196.86" r="2.0"></circle>
<circle cx="123.14" cy="227.71" r="2.0"></circle>
<circle cx="92.29" cy="190.00" r="2.0"></circle>
<circle cx="130.00" cy="166.00" r="2.0"></circle>
<circle cx="154.00" cy="200.29" r="2.0"></circle>
<circle cx="119.71" cy="186.57" r="2.0"></circle>
<circle cx="133.43" cy="217.43" r="2.0"></circle>
<circle cx="102.57" cy="203.71" r="2.0"></circle>
<circle cx="116.29" cy="217.43" r="2.0"></circle>
<circle cx="102.57" cy="217.43" r="2.0"></circle>
<circle cx="102.57" cy="186.57" r="2.0"></circle>
<circle cx="133.43" cy="190.00" r="2.0"></circle>
<circle cx="130.00" cy="224.29" r="2.0"></circle>
<circle cx="95.71" cy="193.43" r="2.0"></circle>
<circle cx="126.57" cy="200.29" r="2.0"></circle>
<circle cx="119.71" cy="190.00" r="2.0"></circle>
<circle cx="130.00" cy="217.43" r="2.0"></circle>
<circle cx="102.57" cy="196.86" r="2.0"></circle>
<circle cx="123.14" cy="200.29" r="2.0"></circle>
<circle cx="119.71" cy="203.71" r="2.0"></circle>
<circle cx="116.29" cy="196.86" r="2.0"></circle>
<circle cx="123.14" cy="214.00" r="2.0"></circle>
<circle cx="106.00" cy="193.43" r="2.0"></circle>
<circle cx="126.57" cy="172.86" r="2.0"></circle>
<circle cx="147.14" cy="166.00" r="2.0"></circle>
<circle cx="154.00" cy="200.29" r="2.0"></circle>
<circle cx="119.71" cy="179.71" r="2.0"></circle>
<circle cx="140.29" cy="172.86" r="2.0"></circle>
<circle cx="147.14" cy="183.14" r="2.0"></circle>
<circle cx="136.86" cy="203.71" r="2.0"></circle>
<circle cx="116.29" cy="207.14" r="2.0"></circle>
<circle cx="112.86" cy="193.43" r="2.0"></circle>
<circle cx="126.57" cy="207.14" r="2.0"></circle>
<circle cx="112.86" cy="234.57" r="2.0"></circle>
<circle cx="85.43" cy="203.71" r="2.0"></circle>
<circle cx="116.29" cy="196.86" r="2.0"></circle>
<circle cx="123.14" cy="203.71" r="2.0"></circle>
<circle cx="116.29" cy="207.14" r="2.0"></circle>
<circle cx="112.86" cy="190.00" r="2.0"></circle>
<circle cx="130.00" cy="190.00" r="2.0"></circle>
<circle cx="130.00" cy="207.14" r="2.0"></circle>
<circle cx="112.86" cy="210.57" r="2.0"></circle>
<circle cx="109.43" cy="207.14" r="2.0"></circle>
<circle cx="112.86" cy="196.86" r="2.0"></circle>
<circle cx="123.14" cy="203.71" r="2.0"></circle>
<circle cx="116.29" cy="196.86" r="2.0"></circle>
<circle cx="123.14" cy="186.57" r="2.0"></circle>
<circle cx="133.43" cy="183.14" r="2.0"></circle>
<circle cx="136.86" cy="203.71" r="2.0"></circle>
<circle cx="116.29" cy="200.29" r="2.0"></circle>
<circle cx="119.71" cy="28.86" r="2.0"></circle>
<circle cx="291.14" cy="210.57" r="2.0"></circle>
<circle cx="109.43" cy="203.71" r="2.0"></circle>
<circle cx="116.29" cy="203.71" r="2.0"></circle>
<circle cx="116.29" cy="193.43" r="2.0"></circle>
<circle cx="126.57" cy="214.00" r="2.0"></circle>
<circle cx="106.00" cy="176.29" r="2.0"></circle>
<circle cx="143.71" cy="214.00" r="2.0"></circle>
<circle cx="106.00" cy="172.86" r="2.0"></circle>
<circle cx="147.14" cy="210.57" r="2.0"></circle>
<circle cx="109.43" cy="203.71" r="2.0"></circle>
<circle cx="116.29" cy="190.00" r="2.0"></circle>
<circle cx="130.00" cy="214.00" r="2.0"></circle>
<circle cx="106.00" cy="111.14" r="2.0"></circle>
<circle cx="208.86" cy="166.00" r="2.0"></circle>
<circle cx="154.00" cy="183.14" r="2.0"></circle>
<circle cx="136.86" cy="220.86" r="2.0"></circle>
<circle cx="99.14" cy="200.29" r="2.0"></circle>
<circle cx="119.71" cy="169.43" r="2.0"></circle>
</g>
<g style="text-anchor: end; font-family: Ubuntu,Verdana,sans-serif; font-size: 0.9em;" >
<text x="58" y="282" style="text-anchor: start;" >benchmarks game</text>
<text x="298" y="282" style="text-anchor: end;" >Yi-1 for all i</text>
</g>
<text x="180" y="18" style="text-anchor: middle; font-family: Ubuntu,Verdana,sans-serif; font-size: 1.2em;" >Re-ordered Lag - 1</text>
<g stroke="#333">
<line x1="58" y1="22" x2="58" y2="264" />
<line x1="298" y1="22" x2="298" y2="264" />
<line x1="58" y1="264" x2="298" y2="264" />
</g>
</svg>

