<?xml version="1.0" encoding="UTF-8" standalone="no"?>
<!DOCTYPE svg PUBLIC "-//W3C//DTD SVG 1.1//EN" "http://www.w3.org/Graphics/SVG/1.1/DTD/svg11.dtd">
<svg xmlns="http://www.w3.org/2000/svg" version="1.1" xmlns:xlink="http://www.w3.org/1999/xlink" viewBox="0 0 512 288">
<!-- Copyright 2016 Isaac Gouy -->
<!-- http://benchmarksgame.alioth.debian.org/license.html -->
<g stroke="#ccc" >
<line x1="51" y1="264" x2="511" y2="264" />
<line x1="51" y1="227.715" x2="511" y2="227.715" />
<line x1="51" y1="193.43" x2="511" y2="193.43" />
<line x1="51" y1="159.145" x2="511" y2="159.145" />
<line x1="51" y1="124.86" x2="511" y2="124.86" />
<line x1="51" y1="90.575" x2="511" y2="90.575" />
<line x1="51" y1="56.29" x2="511" y2="56.29" />
<line x1="51" y1="22.0" x2="511" y2="22.0" />
</g>
<g style="text-anchor: end; font-family: Ubuntu,Verdana,sans-serif; font-size: 0.9em;" >
<text x="51" y="262" >22.47</text>
<text x="51" y="227.715" >.48</text>
<text x="51" y="193.43" >.49</text>
<text x="51" y="159.145" >.50</text>
<text x="51" y="124.86" >.51</text>
<text x="51" y="90.575" >.52</text>
<text x="51" y="56.29" >.53</text>
<text x="51" y="22.005" >22.54</text>
</g>
<polyline fill="none" stroke="#999" points="58.00,28.86 59.51,196.86 61.02,210.57 62.53,207.14 64.04,203.71 65.55,217.43 67.06,220.86 68.57,217.43 70.08,203.71 71.59,220.86 73.10,210.57 74.61,210.57 76.12,196.86 77.63,94.00 79.14,186.57 80.65,190.00 82.16,200.29 83.67,207.14 85.18,196.86 86.69,183.14 88.20,200.29 89.71,183.14 91.22,200.29 92.73,203.71 94.24,227.71 95.75,210.57 97.26,224.29 98.77,190.00 100.28,207.14 101.79,190.00 103.30,200.29 104.81,200.29 106.32,186.57 107.83,207.14 109.34,203.71 110.85,196.86 112.36,169.43 113.87,183.14 115.38,169.43 116.89,214.00 118.40,203.71 119.91,200.29 121.42,214.00 122.93,186.57 124.44,220.86 125.95,214.00 127.46,200.29 128.97,176.29 130.48,193.43 131.99,200.29 133.50,193.43 135.01,169.43 136.52,100.86 138.03,186.57 139.54,207.14 141.05,190.00 142.56,220.86 144.07,176.29 145.58,193.43 147.09,196.86 148.60,200.29 150.11,162.57 151.62,207.14 153.13,210.57 154.64,203.71 156.15,200.29 157.66,203.71 159.17,200.29 160.68,190.00 162.19,200.29 163.70,203.71 165.21,186.57 166.72,193.43 168.23,200.29 169.74,196.86 171.25,176.29 172.76,193.43 174.27,166.00 175.78,190.00 177.29,217.43 178.80,220.86 180.31,166.00 181.82,220.86 183.33,207.14 184.84,200.29 186.35,183.14 187.86,193.43 189.37,207.14 190.88,186.57 192.39,148.86 193.90,214.00 195.41,207.14 196.92,196.86 198.43,179.71 199.94,155.71 201.45,203.71 202.96,207.14 204.47,207.14 205.98,190.00 207.49,193.43 209.00,210.57 210.51,203.71 212.02,207.14 213.53,203.71 215.04,224.29 216.55,220.86 218.06,217.43 219.57,207.14 221.08,207.14 222.59,200.29 224.10,220.86 225.61,196.86 227.12,203.71 228.63,200.29 230.14,203.71 231.65,203.71 233.16,214.00 234.67,203.71 236.18,193.43 237.69,224.29 239.20,210.57 240.71,186.57 242.22,193.43 243.73,214.00 245.24,190.00 246.75,207.14 248.26,196.86 249.77,196.86 251.28,196.86 252.79,200.29 254.30,203.71 255.81,210.57 257.32,203.71 258.83,217.43 260.34,183.14 261.85,179.71 263.36,190.00 264.87,183.14 266.38,217.43 267.89,193.43 269.40,210.57 270.91,193.43 272.42,224.29 273.93,200.29 275.44,200.29 276.95,183.14 278.46,214.00 279.97,162.57 281.48,179.71 282.99,207.14 284.50,207.14 286.01,210.57 287.52,217.43 289.03,193.43 290.54,220.86 292.05,155.71 293.56,196.86 295.07,207.14 296.58,203.71 298.09,179.71 299.60,214.00 301.11,196.86 302.62,210.57 304.13,200.29 305.64,190.00 307.15,186.57 308.66,210.57 310.17,207.14 311.68,210.57 313.19,234.57 314.70,200.29 316.21,203.71 317.72,186.57 319.23,46.00 320.74,203.71 322.25,176.29 323.76,183.14 325.27,220.86 326.78,179.71 328.29,193.43 329.80,214.00 331.31,214.00 332.82,207.14 334.33,196.86 335.84,186.57 337.35,200.29 338.86,186.57 340.37,179.71 341.88,196.86 343.39,186.57 344.90,196.86 346.41,179.71 347.92,200.29 349.43,203.71 350.94,203.71 352.45,203.71 353.96,193.43 355.47,166.00 356.98,207.14 358.49,172.86 360.00,214.00 361.51,196.86 363.02,200.29 364.53,190.00 366.04,203.71 367.55,207.14 369.06,203.71 370.57,200.29 372.08,169.43 373.59,224.29 375.10,200.29 376.61,207.14 378.12,190.00 379.63,203.71 381.14,183.14 382.65,193.43 384.16,196.86 385.67,200.29 387.18,186.57 388.69,179.71 390.20,190.00 391.71,172.86 393.22,210.57 394.73,217.43 396.24,111.14 397.75,190.00 399.26,166.00 400.77,196.86 402.28,190.00 403.79,214.00 405.30,200.29 406.81,220.86 408.32,200.29 409.83,172.86 411.34,200.29 412.85,200.29 414.36,207.14 415.87,196.86 417.38,176.29 418.89,172.86 420.40,203.71 421.91,196.86 423.42,210.57 424.93,196.86 426.44,183.14 427.95,193.43 429.46,220.86 430.97,207.14 432.48,193.43 433.99,193.43 435.50,207.14 437.01,203.71 438.52,210.57 440.03,220.86 441.54,196.86 443.05,172.86 444.56,176.29 446.07,214.00 447.58,186.57 449.09,193.43 450.60,190.00 452.11,176.29 453.62,200.29 455.13,196.86 456.64,196.86 458.15,220.86 459.66,210.57 461.17,193.43 462.68,186.57 464.19,183.14 465.70,210.57 467.21,172.86 468.72,207.14 470.23,200.29 471.74,203.71 473.25,179.71 474.76,210.57 476.27,196.86 477.78,176.29 479.29,200.29 480.80,196.86 482.31,169.43 483.82,193.43 485.33,179.71 486.84,193.43 488.35,200.29 489.86,196.86 491.37,203.71 492.88,207.14 494.39,217.43 495.90,190.00 497.41,196.86 498.92,203.71 500.43,169.43 501.94,210.57 503.45,186.57 504.96,193.43 506.47,200.29 507.98,200.29" />
<g style="text-anchor: end; font-family: Ubuntu,Verdana,sans-serif; font-size: 0.9em;" >
<text x="58" y="282" style="text-anchor: start;" >benchmarks game</text>
</g>
<text x="285" y="18" style="text-anchor: middle; font-family: Ubuntu,Verdana,sans-serif; font-size: 1.2em;" >Run Sequence : Java n-body #3</text>
<g stroke="#333" >
<line x1="58" y1="22" x2="58" y2="264" />
<line x1="511" y1="22" x2="511" y2="264" />
<line x1="58" y1="264" x2="511" y2="264" />
</g>
</svg>

