<?xml version="1.0" encoding="UTF-8" standalone="no"?>
<!DOCTYPE svg PUBLIC "-//W3C//DTD SVG 1.1//EN" "http://www.w3.org/Graphics/SVG/1.1/DTD/svg11.dtd">
<svg xmlns="http://www.w3.org/2000/svg" version="1.1" xmlns:xlink="http://www.w3.org/1999/xlink" viewBox="0 0 512 288">
<!-- Copyright 2016 Isaac Gouy -->
<!-- http://benchmarksgame.alioth.debian.org/license.html -->
<g stroke="#ccc" >
<line x1="51" y1="264" x2="511" y2="264" />
<line x1="51" y1="227.715" x2="511" y2="227.715" />
<line x1="51" y1="193.43" x2="511" y2="193.43" />
<line x1="51" y1="159.145" x2="511" y2="159.145" />
<line x1="51" y1="124.86" x2="511" y2="124.86" />
<line x1="51" y1="90.575" x2="511" y2="90.575" />
<line x1="51" y1="56.29" x2="511" y2="56.29" />
<line x1="51" y1="22.0" x2="511" y2="22.0" />
</g>
<g style="text-anchor: end; font-family: Ubuntu,Verdana,sans-serif; font-size: 0.9em;" >
<text x="51" y="262" >22.47</text>
<text x="51" y="227.715" >.48</text>
<text x="51" y="193.43" >.49</text>
<text x="51" y="159.145" >.50</text>
<text x="51" y="124.86" >.51</text>
<text x="51" y="90.575" >.52</text>
<text x="51" y="56.29" >.53</text>
<text x="51" y="22.005" >22.54</text>
</g>
<g stroke="#ccc">
<circle cx="58.00" cy="193.43" r="2.0"></circle>
<circle cx="59.51" cy="186.57" r="2.0"></circle>
<circle cx="61.02" cy="210.57" r="2.0"></circle>
<circle cx="62.53" cy="196.86" r="2.0"></circle>
<circle cx="64.04" cy="207.14" r="2.0"></circle>
<circle cx="65.55" cy="179.71" r="2.0"></circle>
<circle cx="67.06" cy="200.29" r="2.0"></circle>
<circle cx="68.57" cy="207.14" r="2.0"></circle>
<circle cx="70.08" cy="200.29" r="2.0"></circle>
<circle cx="71.59" cy="183.14" r="2.0"></circle>
<circle cx="73.10" cy="196.86" r="2.0"></circle>
<circle cx="74.61" cy="207.14" r="2.0"></circle>
<circle cx="76.12" cy="94.00" r="2.0"></circle>
<circle cx="77.63" cy="190.00" r="2.0"></circle>
<circle cx="79.14" cy="220.86" r="2.0"></circle>
<circle cx="80.65" cy="210.57" r="2.0"></circle>
<circle cx="82.16" cy="186.57" r="2.0"></circle>
<circle cx="83.67" cy="203.71" r="2.0"></circle>
<circle cx="85.18" cy="207.14" r="2.0"></circle>
<circle cx="86.69" cy="179.71" r="2.0"></circle>
<circle cx="88.20" cy="179.71" r="2.0"></circle>
<circle cx="89.71" cy="196.86" r="2.0"></circle>
<circle cx="91.22" cy="186.57" r="2.0"></circle>
<circle cx="92.73" cy="193.43" r="2.0"></circle>
<circle cx="94.24" cy="186.57" r="2.0"></circle>
<circle cx="95.75" cy="200.29" r="2.0"></circle>
<circle cx="97.26" cy="210.57" r="2.0"></circle>
<circle cx="98.77" cy="190.00" r="2.0"></circle>
<circle cx="100.28" cy="155.71" r="2.0"></circle>
<circle cx="101.79" cy="207.14" r="2.0"></circle>
<circle cx="103.30" cy="207.14" r="2.0"></circle>
<circle cx="104.81" cy="193.43" r="2.0"></circle>
<circle cx="106.32" cy="190.00" r="2.0"></circle>
<circle cx="107.83" cy="183.14" r="2.0"></circle>
<circle cx="109.34" cy="217.43" r="2.0"></circle>
<circle cx="110.85" cy="193.43" r="2.0"></circle>
<circle cx="112.36" cy="200.29" r="2.0"></circle>
<circle cx="113.87" cy="200.29" r="2.0"></circle>
<circle cx="115.38" cy="100.86" r="2.0"></circle>
<circle cx="116.89" cy="200.29" r="2.0"></circle>
<circle cx="118.40" cy="200.29" r="2.0"></circle>
<circle cx="119.91" cy="207.14" r="2.0"></circle>
<circle cx="121.42" cy="183.14" r="2.0"></circle>
<circle cx="122.93" cy="220.86" r="2.0"></circle>
<circle cx="124.44" cy="179.71" r="2.0"></circle>
<circle cx="125.95" cy="179.71" r="2.0"></circle>
<circle cx="127.46" cy="46.00" r="2.0"></circle>
<circle cx="128.97" cy="176.29" r="2.0"></circle>
<circle cx="130.48" cy="196.86" r="2.0"></circle>
<circle cx="131.99" cy="196.86" r="2.0"></circle>
<circle cx="133.50" cy="210.57" r="2.0"></circle>
<circle cx="135.01" cy="162.57" r="2.0"></circle>
<circle cx="136.52" cy="217.43" r="2.0"></circle>
<circle cx="138.03" cy="220.86" r="2.0"></circle>
<circle cx="139.54" cy="186.57" r="2.0"></circle>
<circle cx="141.05" cy="196.86" r="2.0"></circle>
<circle cx="142.56" cy="183.14" r="2.0"></circle>
<circle cx="144.07" cy="203.71" r="2.0"></circle>
<circle cx="145.58" cy="203.71" r="2.0"></circle>
<circle cx="147.09" cy="200.29" r="2.0"></circle>
<circle cx="148.60" cy="200.29" r="2.0"></circle>
<circle cx="150.11" cy="186.57" r="2.0"></circle>
<circle cx="151.62" cy="203.71" r="2.0"></circle>
<circle cx="153.13" cy="155.71" r="2.0"></circle>
<circle cx="154.64" cy="210.57" r="2.0"></circle>
<circle cx="156.15" cy="207.14" r="2.0"></circle>
<circle cx="157.66" cy="176.29" r="2.0"></circle>
<circle cx="159.17" cy="190.00" r="2.0"></circle>
<circle cx="160.68" cy="200.29" r="2.0"></circle>
<circle cx="162.19" cy="193.43" r="2.0"></circle>
<circle cx="163.70" cy="200.29" r="2.0"></circle>
<circle cx="165.21" cy="176.29" r="2.0"></circle>
<circle cx="166.72" cy="183.14" r="2.0"></circle>
<circle cx="168.23" cy="207.14" r="2.0"></circle>
<circle cx="169.74" cy="190.00" r="2.0"></circle>
<circle cx="171.25" cy="186.57" r="2.0"></circle>
<circle cx="172.76" cy="193.43" r="2.0"></circle>
<circle cx="174.27" cy="176.29" r="2.0"></circle>
<circle cx="175.78" cy="196.86" r="2.0"></circle>
<circle cx="177.29" cy="169.43" r="2.0"></circle>
<circle cx="178.80" cy="214.00" r="2.0"></circle>
<circle cx="180.31" cy="207.14" r="2.0"></circle>
<circle cx="181.82" cy="203.71" r="2.0"></circle>
<circle cx="183.33" cy="196.86" r="2.0"></circle>
<circle cx="184.84" cy="203.71" r="2.0"></circle>
<circle cx="186.35" cy="179.71" r="2.0"></circle>
<circle cx="187.86" cy="200.29" r="2.0"></circle>
<circle cx="189.37" cy="186.57" r="2.0"></circle>
<circle cx="190.88" cy="183.14" r="2.0"></circle>
<circle cx="192.39" cy="207.14" r="2.0"></circle>
<circle cx="193.90" cy="200.29" r="2.0"></circle>
<circle cx="195.41" cy="176.29" r="2.0"></circle>
<circle cx="196.92" cy="210.57" r="2.0"></circle>
<circle cx="198.43" cy="214.00" r="2.0"></circle>
<circle cx="199.94" cy="207.14" r="2.0"></circle>
<circle cx="201.45" cy="200.29" r="2.0"></circle>
<circle cx="202.96" cy="200.29" r="2.0"></circle>
<circle cx="204.47" cy="220.86" r="2.0"></circle>
<circle cx="205.98" cy="203.71" r="2.0"></circle>
<circle cx="207.49" cy="176.29" r="2.0"></circle>
<circle cx="209.00" cy="186.57" r="2.0"></circle>
<circle cx="210.51" cy="193.43" r="2.0"></circle>
<circle cx="212.02" cy="176.29" r="2.0"></circle>
<circle cx="213.53" cy="200.29" r="2.0"></circle>
<circle cx="215.04" cy="210.57" r="2.0"></circle>
<circle cx="216.55" cy="190.00" r="2.0"></circle>
<circle cx="218.06" cy="214.00" r="2.0"></circle>
<circle cx="219.57" cy="190.00" r="2.0"></circle>
<circle cx="221.08" cy="203.71" r="2.0"></circle>
<circle cx="222.59" cy="210.57" r="2.0"></circle>
<circle cx="224.10" cy="224.29" r="2.0"></circle>
<circle cx="225.61" cy="200.29" r="2.0"></circle>
<circle cx="227.12" cy="196.86" r="2.0"></circle>
<circle cx="228.63" cy="196.86" r="2.0"></circle>
<circle cx="230.14" cy="207.14" r="2.0"></circle>
<circle cx="231.65" cy="186.57" r="2.0"></circle>
<circle cx="233.16" cy="196.86" r="2.0"></circle>
<circle cx="234.67" cy="207.14" r="2.0"></circle>
<circle cx="236.18" cy="200.29" r="2.0"></circle>
<circle cx="237.69" cy="183.14" r="2.0"></circle>
<circle cx="239.20" cy="196.86" r="2.0"></circle>
<circle cx="240.71" cy="183.14" r="2.0"></circle>
<circle cx="242.22" cy="203.71" r="2.0"></circle>
<circle cx="243.73" cy="220.86" r="2.0"></circle>
<circle cx="245.24" cy="186.57" r="2.0"></circle>
<circle cx="246.75" cy="193.43" r="2.0"></circle>
<circle cx="248.26" cy="217.43" r="2.0"></circle>
<circle cx="249.77" cy="210.57" r="2.0"></circle>
<circle cx="251.28" cy="148.86" r="2.0"></circle>
<circle cx="252.79" cy="169.43" r="2.0"></circle>
<circle cx="254.30" cy="217.43" r="2.0"></circle>
<circle cx="255.81" cy="193.43" r="2.0"></circle>
<circle cx="257.32" cy="207.14" r="2.0"></circle>
<circle cx="258.83" cy="179.71" r="2.0"></circle>
<circle cx="260.34" cy="220.86" r="2.0"></circle>
<circle cx="261.85" cy="200.29" r="2.0"></circle>
<circle cx="263.36" cy="214.00" r="2.0"></circle>
<circle cx="264.87" cy="200.29" r="2.0"></circle>
<circle cx="266.38" cy="207.14" r="2.0"></circle>
<circle cx="267.89" cy="207.14" r="2.0"></circle>
<circle cx="269.40" cy="203.71" r="2.0"></circle>
<circle cx="270.91" cy="214.00" r="2.0"></circle>
<circle cx="272.42" cy="220.86" r="2.0"></circle>
<circle cx="273.93" cy="220.86" r="2.0"></circle>
<circle cx="275.44" cy="196.86" r="2.0"></circle>
<circle cx="276.95" cy="210.57" r="2.0"></circle>
<circle cx="278.46" cy="193.43" r="2.0"></circle>
<circle cx="279.97" cy="203.71" r="2.0"></circle>
<circle cx="281.48" cy="214.00" r="2.0"></circle>
<circle cx="282.99" cy="224.29" r="2.0"></circle>
<circle cx="284.50" cy="190.00" r="2.0"></circle>
<circle cx="286.01" cy="169.43" r="2.0"></circle>
<circle cx="287.52" cy="200.29" r="2.0"></circle>
<circle cx="289.03" cy="214.00" r="2.0"></circle>
<circle cx="290.54" cy="200.29" r="2.0"></circle>
<circle cx="292.05" cy="214.00" r="2.0"></circle>
<circle cx="293.56" cy="210.57" r="2.0"></circle>
<circle cx="295.07" cy="196.86" r="2.0"></circle>
<circle cx="296.58" cy="203.71" r="2.0"></circle>
<circle cx="298.09" cy="186.57" r="2.0"></circle>
<circle cx="299.60" cy="172.86" r="2.0"></circle>
<circle cx="301.11" cy="193.43" r="2.0"></circle>
<circle cx="302.62" cy="203.71" r="2.0"></circle>
<circle cx="304.13" cy="200.29" r="2.0"></circle>
<circle cx="305.64" cy="207.14" r="2.0"></circle>
<circle cx="307.15" cy="179.71" r="2.0"></circle>
<circle cx="308.66" cy="220.86" r="2.0"></circle>
<circle cx="310.17" cy="190.00" r="2.0"></circle>
<circle cx="311.68" cy="203.71" r="2.0"></circle>
<circle cx="313.19" cy="196.86" r="2.0"></circle>
<circle cx="314.70" cy="210.57" r="2.0"></circle>
<circle cx="316.21" cy="207.14" r="2.0"></circle>
<circle cx="317.72" cy="186.57" r="2.0"></circle>
<circle cx="319.23" cy="220.86" r="2.0"></circle>
<circle cx="320.74" cy="172.86" r="2.0"></circle>
<circle cx="322.25" cy="169.43" r="2.0"></circle>
<circle cx="323.76" cy="203.71" r="2.0"></circle>
<circle cx="325.27" cy="207.14" r="2.0"></circle>
<circle cx="326.78" cy="200.29" r="2.0"></circle>
<circle cx="328.29" cy="196.86" r="2.0"></circle>
<circle cx="329.80" cy="203.71" r="2.0"></circle>
<circle cx="331.31" cy="203.71" r="2.0"></circle>
<circle cx="332.82" cy="193.43" r="2.0"></circle>
<circle cx="334.33" cy="210.57" r="2.0"></circle>
<circle cx="335.84" cy="220.86" r="2.0"></circle>
<circle cx="337.35" cy="179.71" r="2.0"></circle>
<circle cx="338.86" cy="169.43" r="2.0"></circle>
<circle cx="340.37" cy="200.29" r="2.0"></circle>
<circle cx="341.88" cy="193.43" r="2.0"></circle>
<circle cx="343.39" cy="193.43" r="2.0"></circle>
<circle cx="344.90" cy="200.29" r="2.0"></circle>
<circle cx="346.41" cy="196.86" r="2.0"></circle>
<circle cx="347.92" cy="203.71" r="2.0"></circle>
<circle cx="349.43" cy="196.86" r="2.0"></circle>
<circle cx="350.94" cy="193.43" r="2.0"></circle>
<circle cx="352.45" cy="224.29" r="2.0"></circle>
<circle cx="353.96" cy="220.86" r="2.0"></circle>
<circle cx="355.47" cy="220.86" r="2.0"></circle>
<circle cx="356.98" cy="203.71" r="2.0"></circle>
<circle cx="358.49" cy="196.86" r="2.0"></circle>
<circle cx="360.00" cy="210.57" r="2.0"></circle>
<circle cx="361.51" cy="193.43" r="2.0"></circle>
<circle cx="363.02" cy="190.00" r="2.0"></circle>
<circle cx="364.53" cy="203.71" r="2.0"></circle>
<circle cx="366.04" cy="162.57" r="2.0"></circle>
<circle cx="367.55" cy="207.14" r="2.0"></circle>
<circle cx="369.06" cy="200.29" r="2.0"></circle>
<circle cx="370.57" cy="196.86" r="2.0"></circle>
<circle cx="372.08" cy="203.71" r="2.0"></circle>
<circle cx="373.59" cy="207.14" r="2.0"></circle>
<circle cx="375.10" cy="207.14" r="2.0"></circle>
<circle cx="376.61" cy="200.29" r="2.0"></circle>
<circle cx="378.12" cy="196.86" r="2.0"></circle>
<circle cx="379.63" cy="193.43" r="2.0"></circle>
<circle cx="381.14" cy="200.29" r="2.0"></circle>
<circle cx="382.65" cy="196.86" r="2.0"></circle>
<circle cx="384.16" cy="196.86" r="2.0"></circle>
<circle cx="385.67" cy="217.43" r="2.0"></circle>
<circle cx="387.18" cy="210.57" r="2.0"></circle>
<circle cx="388.69" cy="166.00" r="2.0"></circle>
<circle cx="390.20" cy="210.57" r="2.0"></circle>
<circle cx="391.71" cy="210.57" r="2.0"></circle>
<circle cx="393.22" cy="200.29" r="2.0"></circle>
<circle cx="394.73" cy="224.29" r="2.0"></circle>
<circle cx="396.24" cy="190.00" r="2.0"></circle>
<circle cx="397.75" cy="193.43" r="2.0"></circle>
<circle cx="399.26" cy="193.43" r="2.0"></circle>
<circle cx="400.77" cy="200.29" r="2.0"></circle>
<circle cx="402.28" cy="172.86" r="2.0"></circle>
<circle cx="403.79" cy="214.00" r="2.0"></circle>
<circle cx="405.30" cy="200.29" r="2.0"></circle>
<circle cx="406.81" cy="196.86" r="2.0"></circle>
<circle cx="408.32" cy="227.71" r="2.0"></circle>
<circle cx="409.83" cy="190.00" r="2.0"></circle>
<circle cx="411.34" cy="166.00" r="2.0"></circle>
<circle cx="412.85" cy="200.29" r="2.0"></circle>
<circle cx="414.36" cy="186.57" r="2.0"></circle>
<circle cx="415.87" cy="217.43" r="2.0"></circle>
<circle cx="417.38" cy="203.71" r="2.0"></circle>
<circle cx="418.89" cy="217.43" r="2.0"></circle>
<circle cx="420.40" cy="217.43" r="2.0"></circle>
<circle cx="421.91" cy="186.57" r="2.0"></circle>
<circle cx="423.42" cy="190.00" r="2.0"></circle>
<circle cx="424.93" cy="224.29" r="2.0"></circle>
<circle cx="426.44" cy="193.43" r="2.0"></circle>
<circle cx="427.95" cy="200.29" r="2.0"></circle>
<circle cx="429.46" cy="190.00" r="2.0"></circle>
<circle cx="430.97" cy="217.43" r="2.0"></circle>
<circle cx="432.48" cy="196.86" r="2.0"></circle>
<circle cx="433.99" cy="200.29" r="2.0"></circle>
<circle cx="435.50" cy="203.71" r="2.0"></circle>
<circle cx="437.01" cy="196.86" r="2.0"></circle>
<circle cx="438.52" cy="214.00" r="2.0"></circle>
<circle cx="440.03" cy="193.43" r="2.0"></circle>
<circle cx="441.54" cy="172.86" r="2.0"></circle>
<circle cx="443.05" cy="166.00" r="2.0"></circle>
<circle cx="444.56" cy="200.29" r="2.0"></circle>
<circle cx="446.07" cy="179.71" r="2.0"></circle>
<circle cx="447.58" cy="172.86" r="2.0"></circle>
<circle cx="449.09" cy="183.14" r="2.0"></circle>
<circle cx="450.60" cy="203.71" r="2.0"></circle>
<circle cx="452.11" cy="207.14" r="2.0"></circle>
<circle cx="453.62" cy="193.43" r="2.0"></circle>
<circle cx="455.13" cy="207.14" r="2.0"></circle>
<circle cx="456.64" cy="234.57" r="2.0"></circle>
<circle cx="458.15" cy="203.71" r="2.0"></circle>
<circle cx="459.66" cy="196.86" r="2.0"></circle>
<circle cx="461.17" cy="203.71" r="2.0"></circle>
<circle cx="462.68" cy="207.14" r="2.0"></circle>
<circle cx="464.19" cy="190.00" r="2.0"></circle>
<circle cx="465.70" cy="190.00" r="2.0"></circle>
<circle cx="467.21" cy="207.14" r="2.0"></circle>
<circle cx="468.72" cy="210.57" r="2.0"></circle>
<circle cx="470.23" cy="207.14" r="2.0"></circle>
<circle cx="471.74" cy="196.86" r="2.0"></circle>
<circle cx="473.25" cy="203.71" r="2.0"></circle>
<circle cx="474.76" cy="196.86" r="2.0"></circle>
<circle cx="476.27" cy="186.57" r="2.0"></circle>
<circle cx="477.78" cy="183.14" r="2.0"></circle>
<circle cx="479.29" cy="203.71" r="2.0"></circle>
<circle cx="480.80" cy="200.29" r="2.0"></circle>
<circle cx="482.31" cy="28.86" r="2.0"></circle>
<circle cx="483.82" cy="210.57" r="2.0"></circle>
<circle cx="485.33" cy="203.71" r="2.0"></circle>
<circle cx="486.84" cy="203.71" r="2.0"></circle>
<circle cx="488.35" cy="193.43" r="2.0"></circle>
<circle cx="489.86" cy="214.00" r="2.0"></circle>
<circle cx="491.37" cy="176.29" r="2.0"></circle>
<circle cx="492.88" cy="214.00" r="2.0"></circle>
<circle cx="494.39" cy="172.86" r="2.0"></circle>
<circle cx="495.90" cy="210.57" r="2.0"></circle>
<circle cx="497.41" cy="203.71" r="2.0"></circle>
<circle cx="498.92" cy="190.00" r="2.0"></circle>
<circle cx="500.43" cy="214.00" r="2.0"></circle>
<circle cx="501.94" cy="111.14" r="2.0"></circle>
<circle cx="503.45" cy="166.00" r="2.0"></circle>
<circle cx="504.96" cy="183.14" r="2.0"></circle>
<circle cx="506.47" cy="220.86" r="2.0"></circle>
<circle cx="507.98" cy="200.29" r="2.0"></circle>
<circle cx="509.49" cy="169.43" r="2.0"></circle>
</g>
<g style="text-anchor: end; font-family: Ubuntu,Verdana,sans-serif; font-size: 0.9em;" >
<text x="58" y="282" style="text-anchor: start;" >benchmarks game</text>
</g>
<text x="285" y="18" style="text-anchor: middle; font-family: Ubuntu,Verdana,sans-serif; font-size: 1.2em;" >Re-ordered Run Sequence</text>
<g stroke="#333">
<line x1="58" y1="22" x2="58" y2="264" />
<line x1="511" y1="22" x2="511" y2="264" />
<line x1="58" y1="264" x2="511" y2="264" />
</g>
</svg>

