<?xml version="1.0" encoding="UTF-8" standalone="no"?>
<!DOCTYPE svg PUBLIC "-//W3C//DTD SVG 1.1//EN" "http://www.w3.org/Graphics/SVG/1.1/DTD/svg11.dtd">
<svg xmlns="http://www.w3.org/2000/svg" version="1.1" xmlns:xlink="http://www.w3.org/1999/xlink" viewBox="0 0 512 288">
<!-- Copyright 2016 Isaac Gouy -->
<!-- http://benchmarksgame.alioth.debian.org/license.html -->
<g stroke="#ccc" >
<line x1="51" y1="264" x2="511" y2="264" />
<line x1="51" y1="227.715" x2="511" y2="227.715" />
<line x1="51" y1="193.43" x2="511" y2="193.43" />
<line x1="51" y1="159.145" x2="511" y2="159.145" />
<line x1="51" y1="124.86" x2="511" y2="124.86" />
<line x1="51" y1="90.575" x2="511" y2="90.575" />
<line x1="51" y1="56.29" x2="511" y2="56.29" />
<line x1="51" y1="22.0" x2="511" y2="22.0" />
</g>
<g style="text-anchor: end; font-family: Ubuntu,Verdana,sans-serif; font-size: 0.9em;" >
<text x="51" y="262" >22.47</text>
<text x="51" y="227.715" >.48</text>
<text x="51" y="193.43" >.49</text>
<text x="51" y="159.145" >.50</text>
<text x="51" y="124.86" >.51</text>
<text x="51" y="90.575" >.52</text>
<text x="51" y="56.29" >.53</text>
<text x="51" y="22.005" >22.54</text>
</g>
<polyline fill="none" stroke="#999" points="58.00,193.43 59.51,186.57 61.02,210.57 62.53,196.86 64.04,207.14 65.55,179.71 67.06,200.29 68.57,207.14 70.08,200.29 71.59,183.14 73.10,196.86 74.61,207.14 76.12,94.00 77.63,190.00 79.14,220.86 80.65,210.57 82.16,186.57 83.67,203.71 85.18,207.14 86.69,179.71 88.20,179.71 89.71,196.86 91.22,186.57 92.73,193.43 94.24,186.57 95.75,200.29 97.26,210.57 98.77,190.00 100.28,155.71 101.79,207.14 103.30,207.14 104.81,193.43 106.32,190.00 107.83,183.14 109.34,217.43 110.85,193.43 112.36,200.29 113.87,200.29 115.38,100.86 116.89,200.29 118.40,200.29 119.91,207.14 121.42,183.14 122.93,220.86 124.44,179.71 125.95,179.71 127.46,46.00 128.97,176.29 130.48,196.86 131.99,196.86 133.50,210.57 135.01,162.57 136.52,217.43 138.03,220.86 139.54,186.57 141.05,196.86 142.56,183.14 144.07,203.71 145.58,203.71 147.09,200.29 148.60,200.29 150.11,186.57 151.62,203.71 153.13,155.71 154.64,210.57 156.15,207.14 157.66,176.29 159.17,190.00 160.68,200.29 162.19,193.43 163.70,200.29 165.21,176.29 166.72,183.14 168.23,207.14 169.74,190.00 171.25,186.57 172.76,193.43 174.27,176.29 175.78,196.86 177.29,169.43 178.80,214.00 180.31,207.14 181.82,203.71 183.33,196.86 184.84,203.71 186.35,179.71 187.86,200.29 189.37,186.57 190.88,183.14 192.39,207.14 193.90,200.29 195.41,176.29 196.92,210.57 198.43,214.00 199.94,207.14 201.45,200.29 202.96,200.29 204.47,220.86 205.98,203.71 207.49,176.29 209.00,186.57 210.51,193.43 212.02,176.29 213.53,200.29 215.04,210.57 216.55,190.00 218.06,214.00 219.57,190.00 221.08,203.71 222.59,210.57 224.10,224.29 225.61,200.29 227.12,196.86 228.63,196.86 230.14,207.14 231.65,186.57 233.16,196.86 234.67,207.14 236.18,200.29 237.69,183.14 239.20,196.86 240.71,183.14 242.22,203.71 243.73,220.86 245.24,186.57 246.75,193.43 248.26,217.43 249.77,210.57 251.28,148.86 252.79,169.43 254.30,217.43 255.81,193.43 257.32,207.14 258.83,179.71 260.34,220.86 261.85,200.29 263.36,214.00 264.87,200.29 266.38,207.14 267.89,207.14 269.40,203.71 270.91,214.00 272.42,220.86 273.93,220.86 275.44,196.86 276.95,210.57 278.46,193.43 279.97,203.71 281.48,214.00 282.99,224.29 284.50,190.00 286.01,169.43 287.52,200.29 289.03,214.00 290.54,200.29 292.05,214.00 293.56,210.57 295.07,196.86 296.58,203.71 298.09,186.57 299.60,172.86 301.11,193.43 302.62,203.71 304.13,200.29 305.64,207.14 307.15,179.71 308.66,220.86 310.17,190.00 311.68,203.71 313.19,196.86 314.70,210.57 316.21,207.14 317.72,186.57 319.23,220.86 320.74,172.86 322.25,169.43 323.76,203.71 325.27,207.14 326.78,200.29 328.29,196.86 329.80,203.71 331.31,203.71 332.82,193.43 334.33,210.57 335.84,220.86 337.35,179.71 338.86,169.43 340.37,200.29 341.88,193.43 343.39,193.43 344.90,200.29 346.41,196.86 347.92,203.71 349.43,196.86 350.94,193.43 352.45,224.29 353.96,220.86 355.47,220.86 356.98,203.71 358.49,196.86 360.00,210.57 361.51,193.43 363.02,190.00 364.53,203.71 366.04,162.57 367.55,207.14 369.06,200.29 370.57,196.86 372.08,203.71 373.59,207.14 375.10,207.14 376.61,200.29 378.12,196.86 379.63,193.43 381.14,200.29 382.65,196.86 384.16,196.86 385.67,217.43 387.18,210.57 388.69,166.00 390.20,210.57 391.71,210.57 393.22,200.29 394.73,224.29 396.24,190.00 397.75,193.43 399.26,193.43 400.77,200.29 402.28,172.86 403.79,214.00 405.30,200.29 406.81,196.86 408.32,227.71 409.83,190.00 411.34,166.00 412.85,200.29 414.36,186.57 415.87,217.43 417.38,203.71 418.89,217.43 420.40,217.43 421.91,186.57 423.42,190.00 424.93,224.29 426.44,193.43 427.95,200.29 429.46,190.00 430.97,217.43 432.48,196.86 433.99,200.29 435.50,203.71 437.01,196.86 438.52,214.00 440.03,193.43 441.54,172.86 443.05,166.00 444.56,200.29 446.07,179.71 447.58,172.86 449.09,183.14 450.60,203.71 452.11,207.14 453.62,193.43 455.13,207.14 456.64,234.57 458.15,203.71 459.66,196.86 461.17,203.71 462.68,207.14 464.19,190.00 465.70,190.00 467.21,207.14 468.72,210.57 470.23,207.14 471.74,196.86 473.25,203.71 474.76,196.86 476.27,186.57 477.78,183.14 479.29,203.71 480.80,200.29 482.31,28.86 483.82,210.57 485.33,203.71 486.84,203.71 488.35,193.43 489.86,214.00 491.37,176.29 492.88,214.00 494.39,172.86 495.90,210.57 497.41,203.71 498.92,190.00 500.43,214.00 501.94,111.14 503.45,166.00 504.96,183.14 506.47,220.86 507.98,200.29" />
<g style="text-anchor: end; font-family: Ubuntu,Verdana,sans-serif; font-size: 0.9em;" >
<text x="58" y="282" style="text-anchor: start;" >benchmarks game</text>
</g>
<text x="285" y="18" style="text-anchor: middle; font-family: Ubuntu,Verdana,sans-serif; font-size: 1.2em;" >Re-ordered Run Sequence</text>
<g stroke="#333" >
<line x1="58" y1="22" x2="58" y2="264" />
<line x1="511" y1="22" x2="511" y2="264" />
<line x1="58" y1="264" x2="511" y2="264" />
</g>
</svg>

