<?xml version="1.0" encoding="UTF-8" standalone="no"?>
<!DOCTYPE svg PUBLIC "-//W3C//DTD SVG 1.1//EN" "http://www.w3.org/Graphics/SVG/1.1/DTD/svg11.dtd">
<svg xmlns="http://www.w3.org/2000/svg" version="1.1" xmlns:xlink="http://www.w3.org/1999/xlink" viewBox="0 0 512 288">

<!-- Copyright 2015 Isaac Gouy -->
<!-- http://benchmarksgame.alioth.debian.org/license.html -->

<g style="stroke: #ccc;" >
<line x1="51" y1="264" x2="511" y2="264" />
<line x1="51" y1="221.57" x2="511" y2="221.57" />
<line x1="51" y1="201.85" x2="511" y2="201.85" />
<line x1="51" y1="175.08" x2="511" y2="175.08" />
<line x1="51" y1="132.65" x2="511" y2="132.65" />
<line x1="51" y1="112.92" x2="511" y2="112.92" />
<line x1="51" y1="86.15" x2="511" y2="86.15" />
<line x1="51" y1="43.73" x2="511" y2="43.73" />
<line x1="51" y1="24" x2="511" y2="24" />
</g>
<g style="text-anchor: end; font-family: Ubuntu,Verdana,sans-serif; font-size: 0.9em;" >
<text x="51" y="262" >1</text>
<text x="51" y="219.57" >3</text>
<text x="51" y="199.85" >5</text>
<text x="51" y="173.08" >10</text>
<text x="51" y="130.65" >30</text>
<text x="51" y="110.92" >50</text>
<text x="51" y="84.15" >100</text>
<text x="51" y="41.73" >300</text>
<text x="51" y="22" ></text>
</g>
<defs>
<linearGradient id="grade" x1="0" y1="0" x2="0" y2="1">
<stop offset="0" style="stop-color: white" stop-opacity="0.6"/>
<stop offset="1" style="stop-color: white" stop-opacity="0.8"/>
</linearGradient>
<mask id="fade">
<rect x="58" y="24" width="452" height="288" fill="url(#grade)"  />
</mask>
<g id="backgroundText" style="text-anchor: end; font-family: Ubuntu,Verdana,sans-serif; font-size: 1em;">
<text x="14" y="0" transform="rotate(270,14,0)" xml:space="preserve">   Node.js   Node.js   Node.js   Node.js   Node.js   Node.js</text>
<text x="37" y="0" transform="rotate(270,37,0)" xml:space="preserve">   TypeScript   TypeScript   TypeScript   TypeScript</text>
<text x="60" y="0" transform="rotate(270,60,0)" xml:space="preserve">Dart   Dart   Dart   Dart   Dart   Dart   Dart   Dart   Dart</text>
<text x="83" y="0" transform="rotate(270,83,0)" xml:space="preserve">   Racket   Racket   Racket   Racket   Racket   Racket</text>
<text x="106" y="0" transform="rotate(270,106,0)" xml:space="preserve">   </text>
<text x="129" y="0" transform="rotate(270,129,0)" xml:space="preserve">   PHP   PHP   PHP   PHP   PHP   PHP   PHP   PHP   PHP   PHP</text>
<text x="152" y="0" transform="rotate(270,152,0)" xml:space="preserve">Hack   Hack   Hack   Hack   Hack   Hack   Hack   Hack   Hack</text>
<text x="175" y="0" transform="rotate(270,175,0)" xml:space="preserve">   Erlang HiPE   Erlang HiPE   Erlang HiPE   Erlang HiPE</text>
<text x="198" y="0" transform="rotate(270,198,0)" xml:space="preserve">   </text>
<text x="221" y="0" transform="rotate(270,221,0)" xml:space="preserve">Perl   Perl   Perl   Perl   Perl   Perl   Perl   Perl   Perl</text>
<text x="244" y="0" transform="rotate(270,244,0)" xml:space="preserve">   Python 3   Python 3   Python 3   Python 3   Python 3</text>
<text x="267" y="0" transform="rotate(270,267,0)" xml:space="preserve">Ruby   Ruby   Ruby   Ruby   Ruby   Ruby   Ruby   Ruby   Ruby</text>
<text x="290" y="0" transform="rotate(270,290,0)" xml:space="preserve">   Smalltalk VW   Smalltalk VW   Smalltalk VW   Smalltalk VW</text>
<text x="313" y="0" transform="rotate(270,313,0)" xml:space="preserve">   Ruby JRuby   Ruby JRuby   Ruby JRuby   Ruby JRuby</text>
<text x="336" y="0" transform="rotate(270,336,0)" xml:space="preserve">   </text>
<text x="359" y="0" transform="rotate(270,359,0)" xml:space="preserve">   Lua   Lua   Lua   Lua   Lua   Lua   Lua   Lua   Lua   Lua</text>
<text x="382" y="0" transform="rotate(270,382,0)" xml:space="preserve">   </text>
<text x="405" y="0" transform="rotate(270,405,0)" xml:space="preserve">Matz's Interpreter   Matz's Interpreter   Matz's Interpreter</text>
</g>
</defs>
<use x="60" y="27" xlink:href="#backgroundText"/>
<rect x="58" y="24" width="452" height="288" fill="white" mask="url(#fade)" />
<rect x="58" y="264" width="452" height="288" style="fill: white; stroke: white;" />
<g style="fill: black; stroke: black;">
<rect x="71" y="152.99" width="1" height="70.41" />
<rect x="94" y="151.85" width="1" height="71.76" />
<rect x="117" y="157.93" width="1" height="59.4" />
<rect x="140" y="142.68" width="1" height="109.47" />
<rect x="163" y="708.61" width="1" height="0" />
<rect x="186" y="95.68" width="1" height="157.72" />
<rect x="209" y="104.23" width="1" height="127.14" />
<rect x="232" y="118.37" width="1" height="101.57" />
<rect x="255" y="708.61" width="1" height="0" />
<rect x="278" y="64.93" width="1" height="168.99" />
<rect x="301" y="70.74" width="1" height="164.01" />
<rect x="324" y="66.38" width="1" height="173.97" />
<rect x="347" y="72.55" width="1" height="109.66" />
<rect x="370" y="57.59" width="1" height="101.46" />
<rect x="393" y="708.61" width="1" height="0" />
<rect x="416" y="60.98" width="1" height="66.08" />
<rect x="439" y="708.61" width="1" height="0" />
<rect x="462" y="-12.57" width="1" height="164.93" />
</g>
<g style="fill: white; stroke: black;">
<rect x="62" y="169.59" width="18" height="17.11" />
<rect x="85" y="161.86" width="18" height="35.3" />
<rect x="108" y="167.86" width="18" height="25.61" />
<rect x="131" y="164.37" width="18" height="26.97" />
<rect x="154" y="708.61" width="18" height="0" />
<rect x="177" y="118.67" width="18" height="71.28" />
<rect x="200" y="133" width="18" height="51.64" />
<rect x="223" y="143.19" width="18" height="35.49" />
<rect x="246" y="708.61" width="18" height="0" />
<rect x="269" y="97.13" width="18" height="78.2" />
<rect x="292" y="89.57" width="18" height="83.32" />
<rect x="315" y="95.99" width="18" height="56.53" />
<rect x="338" y="85.58" width="18" height="75.06" />
<rect x="361" y="86.36" width="18" height="51.63" />
<rect x="384" y="708.61" width="18" height="0" />
<rect x="407" y="67.36" width="18" height="53.87" />
<rect x="430" y="708.61" width="18" height="0" />
<rect x="453" y="20.29" width="18" height="86.82" />
</g>
<g style="fill: black; stroke: black;">
<line x1="67" y1="223.4" x2="75.5" y2="223.4" />
<line x1="67" y1="152.99" x2="75.5" y2="152.99" />
<line x1="67" y1="151.09" x2="75.5" y2="151.09" />
<rect x="71" y="151.09" width="1" height="5" />
</g>
<g style="fill: black; stroke: black;">
<rect x="63" y="176.52" width="16" height="1" />
</g>
<g style="fill: black; stroke: black;">
<line x1="90" y1="223.61" x2="98.5" y2="223.61" />
<line x1="90" y1="151.85" x2="98.5" y2="151.85" />
</g>
<g style="fill: black; stroke: black;">
<rect x="86" y="177.37" width="16" height="1" />
</g>
<g style="fill: black; stroke: black;">
<line x1="113" y1="217.33" x2="121.5" y2="217.33" />
<line x1="113" y1="157.93" x2="121.5" y2="157.93" />
</g>
<g style="fill: black; stroke: black;">
<rect x="109" y="178.02" width="16" height="1" />
</g>
<g style="fill: black; stroke: black;">
<line x1="136" y1="252.14" x2="144.5" y2="252.14" />
<line x1="136" y1="142.68" x2="144.5" y2="142.68" />
<line x1="136" y1="124.92" x2="144.5" y2="124.92" />
<rect x="140" y="124.92" width="1" height="5" />
</g>
<g style="fill: black; stroke: black;">
<rect x="132" y="170.17" width="16" height="1" />
</g>
<g style="fill: black; stroke: black;">
<line x1="159" y1="708.61" x2="167.5" y2="708.61" />
<line x1="159" y1="708.61" x2="167.5" y2="708.61" />
</g>
<g style="fill: black; stroke: black;">
<rect x="155" y="707.61" width="16" height="1" />
</g>
<g style="fill: black; stroke: black;">
<line x1="182" y1="253.4" x2="190.5" y2="253.4" />
<line x1="182" y1="95.68" x2="190.5" y2="95.68" />
</g>
<g style="fill: black; stroke: black;">
<rect x="178" y="142.34" width="16" height="1" />
</g>
<g style="fill: black; stroke: black;">
<line x1="205" y1="231.37" x2="213.5" y2="231.37" />
<line x1="205" y1="104.23" x2="213.5" y2="104.23" />
<line x1="205" y1="94.2" x2="213.5" y2="94.2" />
<rect x="209" y="94.2" width="1" height="5" />
</g>
<g style="fill: black; stroke: black;">
<rect x="201" y="145.17" width="16" height="1" />
</g>
<g style="fill: black; stroke: black;">
<line x1="228" y1="219.95" x2="236.5" y2="219.95" />
<line x1="228" y1="118.37" x2="236.5" y2="118.37" />
<line x1="228" y1="95.08" x2="236.5" y2="95.08" />
<rect x="232" y="95.08" width="1" height="5" />
</g>
<g style="fill: black; stroke: black;">
<rect x="224" y="145.3" width="16" height="1" />
</g>
<g style="fill: black; stroke: black;">
<line x1="251" y1="708.61" x2="259.5" y2="708.61" />
<line x1="251" y1="708.61" x2="259.5" y2="708.61" />
</g>
<g style="fill: black; stroke: black;">
<rect x="247" y="707.61" width="16" height="1" />
</g>
<g style="fill: black; stroke: black;">
<line x1="274" y1="233.92" x2="282.5" y2="233.92" />
<line x1="274" y1="64.93" x2="282.5" y2="64.93" />
<line x1="274" y1="25.37" x2="282.5" y2="25.37" />
<rect x="278" y="25.37" width="1" height="5" />
</g>
<g style="fill: black; stroke: black;">
<rect x="270" y="117.3" width="16" height="1" />
</g>
<g style="fill: black; stroke: black;">
<line x1="297" y1="234.74" x2="305.5" y2="234.74" />
<line x1="297" y1="70.74" x2="305.5" y2="70.74" />
</g>
<g style="fill: black; stroke: black;">
<rect x="293" y="118.99" width="16" height="1" />
</g>
<g style="fill: black; stroke: black;">
<line x1="320" y1="240.34" x2="328.5" y2="240.34" />
<line x1="320" y1="66.38" x2="328.5" y2="66.38" />
<line x1="320" y1="38.36" x2="328.5" y2="38.36" />
<rect x="324" y="38.36" width="1" height="5" />
</g>
<g style="fill: black; stroke: black;">
<rect x="316" y="120.59" width="16" height="1" />
</g>
<g style="fill: black; stroke: black;">
<line x1="343" y1="182.2" x2="351.5" y2="182.2" />
<line x1="343" y1="72.55" x2="351.5" y2="72.55" />
</g>
<g style="fill: black; stroke: black;">
<rect x="339" y="132.02" width="16" height="1" />
</g>
<g style="fill: black; stroke: black;">
<line x1="366" y1="159.05" x2="374.5" y2="159.05" />
<line x1="366" y1="57.59" x2="374.5" y2="57.59" />
<line x1="366" y1="21" x2="374.5" y2="21" />
<rect x="370" y="21" width="1" height="5" />
</g>
<g style="fill: black; stroke: black;">
<rect x="362" y="107.72" width="16" height="1" />
</g>
<g style="fill: black; stroke: black;">
<line x1="389" y1="708.61" x2="397.5" y2="708.61" />
<line x1="389" y1="708.61" x2="397.5" y2="708.61" />
</g>
<g style="fill: black; stroke: black;">
<rect x="385" y="707.61" width="16" height="1" />
</g>
<g style="fill: black; stroke: black;">
<line x1="412" y1="127.05" x2="420.5" y2="127.05" />
<line x1="412" y1="60.98" x2="420.5" y2="60.98" />
</g>
<g style="fill: black; stroke: black;">
<rect x="408" y="97.03" width="16" height="1" />
</g>
<g style="fill: black; stroke: black;">
<line x1="435" y1="708.61" x2="443.5" y2="708.61" />
<line x1="435" y1="708.61" x2="443.5" y2="708.61" />
</g>
<g style="fill: black; stroke: black;">
<rect x="431" y="707.61" width="16" height="1" />
</g>
<g style="fill: black; stroke: black;">
<line x1="458" y1="152.36" x2="466.5" y2="152.36" />
<line x1="458" y1="-12.57" x2="466.5" y2="-12.57" />
<line x1="458" y1="-43.91" x2="466.5" y2="-43.91" />
<rect x="462" y="-43.91" width="1" height="5" />
</g>
<g style="fill: black; stroke: black;">
<rect x="454" y="24.02" width="16" height="1" />
</g>
<g style="text-anchor: end; font-family: Ubuntu,Verdana,sans-serif; font-size: 0.9em;" >
<text x="512" y="282" >28 Mar 2018 u64q</text>
<text x="58" y="282" style="text-anchor: start;" >benchmarks game</text>
</g>
<text x="16" y="144" transform="rotate(270,16,144)" style="text-anchor: middle; font-family: Ubuntu,Verdana,sans-serif; font-size: 0.9em;" >program time / fastest program time</text>
<text x="285" y="18" style="text-anchor: middle; font-family: Ubuntu,Verdana,sans-serif; font-size: 1.2em;" >How many times slower?</text>
<g style="stroke: #333;">
<line x1="58" y1="24" x2="58" y2="264" />
<line x1="511" y1="24" x2="511" y2="264" />
<line x1="58" y1="264" x2="511" y2="264" />
</g>
</svg>

